<svg 
          width="155" 
          height="206" fill="none" 
          xmlns="http://www.w3.org/2000/svg">
          <path d="M 77.5 206 C 120.3058319290479 206 155 180.25 155 135.1875 C 155 115.875 148.54166666666666 83.6875 122.70833333333333 57.9375 C 125.9375 77.25 106.5625 83.6875 106.5625 83.6875 C 116.25 51.5 90.41666666666666 6.4375 51.666666666666664 0 C 56.277916580438614 25.75 58.125 51.5 25.833333333333332 77.25 C 9.6875 90.125 0 112.38587464392185 0 135.1875 C 0 180.25 34.6941680709521 206 77.5 206 Z M 77.5 193.125 C 56.09708403547605 193.125 38.75 180.25 38.75 157.71875 C 38.75 148.0625 41.979166666666664 131.96875 54.89583333333333 119.09375 C 53.28124999999999 128.75 64.58333333333333 135.1875 64.58333333333333 135.1875 C 59.73958333333333 119.09375 71.04166666666666 93.34375 90.41666666666666 90.125 C 88.10458326712249 103 87.1875 115.875 103.33333333333333 128.75 C 111.40625 135.1875 116.25 146.31150028854609 116.25 157.71875 C 116.25 180.25 98.90291596452394 193.125 77.5 193.125 Z" fill="rgb(163.4039694070816,22.950008511543274,229.49999392032623)"/>
        </svg>